# 3ds Max Wavefront OBJ Exporter v0.99 - (c)2007 guruware
# File Created: 23.12.2021 22:16:37

mtllib base_plane.mtl

#
# object Plane001
#

v  -19.6850 0.0000 19.6850
v  19.6850 0.0000 19.6850
v  -19.6850 0.0000 -19.6850
v  19.6850 0.0000 -19.6850
v  30.1071 0.0000 19.6850
v  30.1071 0.0000 -19.6850
v  -30.4455 0.0000 19.6850
v  -30.4455 0.0000 -19.6850
v  -19.6850 0.0000 -30.4356
v  19.6850 0.0000 -30.4356
v  -19.6850 0.0000 31.5891
v  19.6850 0.0000 31.5891
v  38.0749 0.0000 19.6850
v  38.0749 0.0000 -19.6850
v  49.3858 0.0000 19.6850
v  49.3858 0.0000 -19.6850
v  -37.8769 0.0000 19.6850
v  -37.8769 0.0000 -19.6850
v  -19.6850 0.0000 39.7824
v  19.6850 0.0000 39.7824
# 20 vertices

vn 0.0000 1.0000 -0.0000
# 1 vertex normals

vt 0.0000 1.0000 0.0000
vt 0.0000 0.0000 0.0000
vt 1.0000 0.0000 0.0000
vt 1.0000 1.0000 0.0000
# 4 texture coords

o Plane001
g Plane001
usemtl wire_225198087
s 1
f 3/1/1 1/2/1 2/3/1 4/4/1 
s off
f 4/4/1 2/3/1 5/3/1 6/4/1 
f 1/2/1 3/1/1 8/1/1 7/2/1 
f 3/1/1 4/4/1 10/4/1 9/1/1 
f 2/3/1 1/2/1 11/2/1 12/3/1 
f 6/4/1 5/3/1 13/3/1 14/4/1 
f 14/4/1 13/3/1 15/3/1 16/4/1 
f 7/2/1 8/1/1 18/1/1 17/2/1 
f 12/3/1 11/2/1 19/2/1 20/3/1 
# 9 polygons

