# 3ds Max Wavefront OBJ Exporter v0.99 - (c)2007 guruware
# File Created: 23.12.2021 17:24:45

mtllib plane_split.mtl

#
# object Plane001
#

v  -19.6850 0.0000 19.6850
v  -6.5617 0.0000 19.6850
v  6.5617 0.0000 19.6850
v  19.6850 0.0000 19.6850
v  -19.6850 0.0000 -0.0000
v  -6.5617 0.0000 -0.0000
v  6.5617 0.0000 -0.0000
v  19.6850 0.0000 -0.0000
v  -19.6850 0.0000 -19.6850
v  -6.5617 0.0000 -19.6850
v  6.5617 0.0000 -19.6850
v  19.6850 0.0000 -19.6850
# 12 vertices

vn 0.0000 1.0000 -0.0000
# 1 vertex normals

vt 0.0000 0.5000 0.0000
vt 0.0000 0.0000 0.0000
vt 0.3333 0.0000 0.0000
vt 0.3333 0.5000 0.0000
vt 0.6667 0.0000 0.0000
vt 0.6667 0.5000 0.0000
vt 1.0000 0.0000 0.0000
vt 1.0000 0.5000 0.0000
vt 0.0000 1.0000 0.0000
vt 0.3333 1.0000 0.0000
vt 0.6667 1.0000 0.0000
vt 1.0000 1.0000 0.0000
# 12 texture coords

o Plane001
g Plane001
usemtl wire_086086086
s 1
f 5/1/1 1/2/1 2/3/1 6/4/1 
f 6/4/1 2/3/1 3/5/1 7/6/1 
f 7/6/1 3/5/1 4/7/1 8/8/1 
f 9/9/1 5/1/1 6/4/1 10/10/1 
f 10/10/1 6/4/1 7/6/1 11/11/1 
f 11/11/1 7/6/1 8/8/1 12/12/1 
# 6 polygons

