# 3ds Max Wavefront OBJ Exporter v0.99 - (c)2007 guruware
# File Created: 13.01.2022 20:52:05

mtllib race_base_floor.mtl

#
# object Race
#

v  -36.7348 -327.1611 171.8946
v  -36.7348 -327.1611 -40.5309
v  36.7348 -327.1611 -40.5309
v  36.7348 -327.1611 171.8946
v  -36.7348 86.4439 171.8946
v  36.7348 86.4439 171.8946
v  36.7348 86.4439 -40.5309
v  -36.7348 86.4439 -40.5309
v  -540.3973 -327.1611 470.0609
v  -584.0148 -327.1611 526.2418
v  -584.0148 217.0329 526.2418
v  -540.3973 206.5219 470.0609
v  75.5233 -327.1611 302.1752
v  7.5203 -327.1611 305.6779
v  75.5233 86.4439 302.1752
v  7.5203 86.4439 305.6779
v  68.6112 -327.1611 472.0465
v  1.5126 -327.1611 446.5048
v  68.6112 86.4439 472.0465
v  1.5126 86.4439 446.5048
v  -1.2918 -327.1611 619.1261
v  -54.2229 -327.1611 569.3452
v  -1.2918 86.4439 619.1261
v  -54.2229 86.4439 569.3452
v  -128.8175 -327.1611 702.3645
v  -150.0498 -327.1611 634.4827
v  -128.8175 86.4439 702.3645
v  -150.0498 86.4439 634.4827
v  -332.1921 -327.1611 707.1984
v  -328.1448 -327.1611 636.1886
v  -332.1921 86.4439 707.1984
v  -328.1448 86.4439 636.1886
v  -481.0886 -327.1611 606.4709
v  -437.4712 -327.1611 550.2900
v  -481.0886 137.3911 606.4709
v  -437.4712 126.8801 550.2900
v  -53.1927 -327.1613 -774.0485
v  42.2542 -327.1613 -771.6134
v  42.2541 164.1749 -771.6133
v  -53.1927 164.1749 -774.0485
v  -679.9547 -327.1611 364.4846
v  -723.5722 -327.1611 420.6654
v  -832.2863 -327.1611 363.9143
v  -724.6727 -327.1611 310.8831
v  -723.5723 178.5739 420.6654
v  -832.2864 181.5157 363.9142
v  -679.9547 173.5290 364.4846
v  -724.6727 171.8183 310.8831
v  -873.9367 -327.1611 204.7390
v  -751.0811 -327.1611 189.7902
v  -873.9369 181.5157 204.7389
v  -751.0811 174.1533 189.7902
v  -881.5812 -327.1611 8.2763
v  -758.9275 -327.1611 7.8268
v  -881.5815 181.5157 8.2761
v  -758.9275 174.4671 7.8268
v  -702.2648 -327.1611 -388.9196
v  -609.8712 -327.1611 -350.1428
v  -702.2650 164.1751 -388.9199
v  -609.8712 164.1751 -350.1428
v  -688.5862 -327.1611 -504.6162
v  -589.9166 -327.1611 -506.5212
v  -688.5865 164.1751 -504.6164
v  -589.9166 164.1751 -506.5212
v  -688.5723 -327.1612 -506.8233
v  -660.9912 -327.1612 -508.7284
v  -688.5726 164.1750 -506.8236
v  -660.9912 164.1750 -508.7284
v  -651.0394 -327.1612 -810.2799
v  -678.6426 -327.1612 -812.3323
v  -679.0850 -327.1612 -818.6011
v  -609.9780 -327.1612 -817.1444
v  -678.6429 164.1750 -812.3325
v  -679.0853 164.1750 -818.6013
v  -651.0394 164.1750 -810.2799
v  -609.9780 164.1750 -817.1444
v  -648.8490 -327.1612 -931.8164
v  -581.9974 -327.1612 -914.2451
v  -648.8492 164.1750 -931.8168
v  -581.9974 164.1750 -914.2451
v  -557.7789 -327.1613 -1040.0344
v  -505.3000 -327.1613 -995.0471
v  -557.7789 164.1750 -1040.0348
v  -505.3000 164.1750 -995.0471
v  -437.5218 -327.1613 -1102.7456
v  -402.3290 -327.1613 -1043.2532
v  -437.5218 164.1750 -1102.7458
v  -402.3290 164.1750 -1043.2532
v  -276.3719 -327.1613 -1134.5496
v  -269.5020 -327.1613 -1065.7695
v  -276.3719 164.1750 -1134.5498
v  -269.5021 164.1750 -1065.7695
v  -97.6050 -327.1613 -1089.3728
v  -123.8485 -327.1613 -1025.4261
v  -97.6048 164.1750 -1089.3728
v  -123.8485 164.1750 -1025.4261
v  5.2903 -327.1613 -976.6602
v  -55.7223 -327.1613 -937.1155
v  5.2904 164.1750 -976.6600
v  -55.7223 164.1750 -937.1155
v  -51.5748 -327.3973 -337.9756
v  -51.5748 84.4408 -337.9755
v  43.8720 84.4408 -335.5403
v  43.8720 -327.3973 -335.5405
v  -653.0297 -327.1612 -749.9696
v  -680.6285 -327.1612 -751.3496
v  -655.0201 -327.1612 -690.2550
v  -682.6145 -327.1612 -690.3669
v  -657.0104 -327.1612 -629.9447
v  -684.6004 -327.1612 -629.3843
v  -659.0007 -327.1612 -569.0387
v  -686.5864 -327.1612 -567.8059
v  -854.1456 -327.1612 -812.4387
v  -856.1314 -327.1612 -751.4561
v  -856.1317 164.1750 -751.4563
v  -854.1459 164.1750 -812.4390
v  -858.1175 -327.1612 -690.4734
v  -858.1178 164.1750 -690.4736
v  -860.1033 -327.1612 -629.4907
v  -860.1036 164.1750 -629.4910
v  -862.0894 -327.1612 -567.9124
v  -862.0895 164.1750 -567.9126
v  -864.0753 -327.1612 -506.9298
v  -864.0754 164.1750 -506.9300
v  -680.6288 164.1750 -751.3499
v  -653.0297 164.1750 -749.9696
v  -682.6147 164.1750 -690.3672
v  -655.0201 164.1750 -690.2550
v  -684.6006 164.1750 -629.3845
v  -657.0104 164.1750 -629.9447
v  -686.5866 164.1750 -567.8062
v  -659.0007 164.1750 -569.0387
v  -688.5726 294.5500 -506.8236
v  -686.5866 294.5500 -567.8062
v  -862.0895 294.5500 -567.9126
v  -864.0754 294.5500 -506.9300
v  -684.6006 294.5500 -629.3845
v  -860.1036 294.5500 -629.4910
v  -682.6147 294.5500 -690.3672
v  -858.1178 294.5500 -690.4736
v  -680.6288 294.5500 -751.3499
v  -856.1317 294.5500 -751.4563
v  -678.6429 294.5500 -812.3325
v  -854.1459 294.5500 -812.4390
v  -678.6429 252.5096 -812.3325
v  -680.6288 252.5096 -751.3499
v  -854.1459 252.5096 -812.4390
v  -856.1317 252.5096 -751.4563
v  -864.0754 252.5096 -506.9300
v  -862.0895 252.5096 -567.9126
v  -688.5726 252.5096 -506.8236
v  -686.5866 252.5096 -567.8062
v  -858.1178 252.5096 -690.4736
v  -860.1036 252.5096 -629.4910
v  -684.6006 252.5096 -629.3845
v  -682.6147 252.5096 -690.3672
v  -52.4167 163.1277 -316.2229
v  43.0301 163.1277 -313.7879
v  43.0301 404.6960 -313.7878
v  -52.4167 404.6960 -316.2229
v  -51.5748 163.1277 -340.4798
v  43.8720 163.1277 -338.0448
v  43.8720 404.6960 -338.0446
v  -51.5748 404.6960 -340.4798
v  -52.4167 239.7528 -770.3340
v  43.0301 239.7528 -767.8989
v  43.0301 404.6960 -767.8988
v  -52.4167 404.6960 -770.3340
v  -51.5748 239.7529 -794.5908
v  43.8720 239.7529 -792.1559
v  43.8720 404.6960 -792.1556
v  -51.5748 404.6960 -794.5908
# 172 vertices

vn 0.0000 -1.0000 -0.0000
vn 0.0000 1.0000 -0.0000
vn -0.9719 0.0000 -0.2352
vn 1.0000 0.0000 -0.0000
vn -1.0000 0.0000 -0.0000
vn 0.9957 0.0000 -0.0924
vn -0.9947 0.0000 0.1026
vn -0.9947 -0.0000 0.1026
vn 0.9999 0.0000 0.0127
vn -0.9999 -0.0000 -0.0133
vn 0.9892 0.0000 0.1466
vn 0.9892 -0.0000 0.1466
vn -0.9901 -0.0000 -0.1400
vn 0.9024 -0.0000 0.4310
vn 0.9024 0.0000 0.4310
vn -0.9090 -0.0000 -0.4169
vn -0.9090 0.0000 -0.4169
vn 0.0760 0.0000 0.9971
vn 0.0760 -0.0000 0.9971
vn -0.0307 0.0000 -0.9995
vn -0.9082 0.0000 0.4185
vn 0.7504 0.6608 0.0133
vn 0.7016 0.7117 0.0367
vn 0.9295 0.0000 -0.3688
vn -0.9285 0.0000 0.3713
vn 0.8718 0.4744 0.1222
vn 0.9285 0.0000 -0.3713
vn -0.0816 -0.0000 0.9967
vn -0.0816 0.0000 0.9967
vn -0.8586 -0.0000 0.5127
vn -0.8586 0.0000 0.5127
vn 0.1143 0.9915 -0.0614
vn 0.1871 0.9804 -0.0609
vn 0.9678 0.0000 -0.2517
vn 0.9719 0.0000 0.2352
vn -0.9967 -0.0000 0.0813
vn 0.2772 0.9608 -0.0003
vn 0.1831 0.9830 -0.0149
vn 0.9977 0.0000 -0.0678
vn 0.9977 -0.0000 -0.0678
vn -0.9999 -0.0000 0.0121
vn 0.1885 0.9821 -0.0008
vn 0.1813 0.9834 -0.0022
vn 0.9999 -0.0000 -0.0134
vn 0.9999 0.0000 -0.0134
vn 0.0000 -1.0000 0.0000
vn -0.0000 -1.0000 0.0000
vn -0.9902 -0.0000 -0.1394
vn 0.1812 0.9834 -0.0047
vn 0.0493 0.9981 -0.0366
vn 0.9917 0.0000 0.1287
vn -0.9993 -0.0000 -0.0368
vn -0.0000 1.0000 -0.0000
vn 0.9992 0.0000 0.0397
vn -1.0000 -0.0000 -0.0020
vn 0.0991 0.0000 -0.9951
vn -0.9998 -0.0000 0.0220
vn 0.4726 0.0000 0.8813
vn -0.9966 -0.0000 -0.0830
vn 0.9960 0.0000 0.0895
vn -0.9673 -0.0000 -0.2538
vn 0.9589 0.0000 0.2837
vn -0.8583 -0.0000 -0.5131
vn 0.8323 0.0000 0.5543
vn -0.5349 -0.0000 -0.8449
vn 0.4777 0.0000 0.8785
vn 0.6297 -0.0000 -0.7768
vn -0.6642 -0.0000 0.7476
vn 0.9618 -0.0000 -0.2737
vn -0.9723 -0.0000 0.2338
vn -0.9723 0.0000 0.2338
vn 0.9984 -0.0000 -0.0561
vn 0.9984 0.0000 -0.0561
vn 0.0000 1.0000 0.0000
vn -0.0000 1.0000 0.0000
vn -1.0000 0.0000 0.0048
vn 0.0816 0.0000 -0.9967
vn -0.0001 -1.0000 0.0008
vn 0.0000 -1.0000 0.0008
vn -0.0000 -1.0000 0.0008
vn -0.9999 0.0000 0.0156
vn 0.0005 1.0000 -0.0067
vn 0.0006 1.0000 -0.0067
vn 0.0000 1.0000 -0.0068
vn 1.0000 0.0000 0.0075
vn 1.0000 -0.0000 0.0075
vn -0.9999 -0.0000 -0.0102
vn -0.9999 -0.0000 -0.0101
vn 0.9999 0.0000 0.0103
vn 0.9999 0.0000 0.0102
vn -0.0019 0.0000 1.0000
vn 0.0019 -0.0000 -1.0000
vn 0.9999 -0.0000 0.0102
vn 0.0019 0.0000 -1.0000
vn -0.9999 0.0000 -0.0102
vn -0.9999 0.0000 -0.0101
vn 0.9999 0.0000 0.0101
vn 0.9999 -0.0000 0.0108
vn -0.9999 0.0000 -0.0108
# 99 vertex normals

vt 1.0000 0.0000 0.0000
vt 1.0000 1.0000 0.0000
vt 0.0000 1.0000 0.0000
vt 0.0000 0.0000 0.0000
# 4 texture coords

o Race
g Race
usemtl wire_225198087
s 2
f 1/1/1 2/2/1 3/3/1 
f 3/3/1 4/4/1 1/1/1 
s 4
f 5/4/2 6/1/2 7/2/2 
f 7/2/2 8/3/2 5/4/2 
s 8
f 9/4/3 10/1/3 11/2/3 
f 11/2/3 12/3/3 9/4/3 
s 16
f 4/4/4 3/1/4 7/2/4 
f 7/2/4 6/3/4 4/4/4 
s 64
f 2/4/5 1/1/5 5/2/5 
f 5/2/5 8/3/5 2/4/5 
s off
f 1/4/1 4/1/1 13/1/1 
f 13/1/1 14/4/1 1/4/1 
f 4/1/6 6/2/6 15/2/6 
f 15/2/6 13/1/6 4/1/6 
f 6/2/2 5/3/2 16/3/2 
f 16/3/2 15/2/2 6/2/2 
f 5/3/7 1/4/7 14/4/7 
f 14/4/8 16/3/8 5/3/8 
f 14/4/1 13/1/1 17/1/1 
f 17/1/1 18/4/1 14/4/1 
f 13/1/9 15/2/9 19/2/9 
f 19/2/9 17/1/9 13/1/9 
f 15/2/2 16/3/2 20/3/2 
f 20/3/2 19/2/2 15/2/2 
f 16/3/10 14/4/10 18/4/10 
f 18/4/10 20/3/10 16/3/10 
f 18/4/1 17/1/1 21/1/1 
f 21/1/1 22/4/1 18/4/1 
f 17/1/11 19/2/11 23/2/11 
f 23/2/12 21/1/12 17/1/12 
f 19/2/2 20/3/2 24/3/2 
f 24/3/2 23/2/2 19/2/2 
f 20/3/13 18/4/13 22/4/13 
f 22/4/13 24/3/13 20/3/13 
f 22/4/1 21/1/1 25/1/1 
f 25/1/1 26/4/1 22/4/1 
f 21/1/14 23/2/14 27/2/14 
f 27/2/15 25/1/15 21/1/15 
f 23/2/2 24/3/2 28/3/2 
f 28/3/2 27/2/2 23/2/2 
f 24/3/16 22/4/16 26/4/16 
f 26/4/17 28/3/17 24/3/17 
f 26/4/1 25/1/1 29/1/1 
f 29/1/1 30/4/1 26/4/1 
f 25/1/18 27/2/18 31/2/18 
f 31/2/19 29/1/19 25/1/19 
f 27/2/2 28/3/2 32/3/2 
f 32/3/2 31/2/2 27/2/2 
f 28/3/20 26/4/20 30/4/20 
f 30/4/20 32/3/20 28/3/20 
f 30/4/1 29/1/1 33/1/1 
f 33/1/1 34/4/1 30/4/1 
f 29/1/21 31/2/21 35/2/21 
f 35/2/21 33/1/21 29/1/21 
f 31/2/22 32/3/22 36/3/22 
f 36/3/23 35/2/23 31/2/23 
f 32/3/24 30/4/24 34/4/24 
f 34/4/24 36/3/24 32/3/24 
f 34/4/1 33/1/1 10/1/1 
f 10/1/1 9/4/1 34/4/1 
f 33/1/25 35/2/25 11/2/25 
f 11/2/25 10/1/25 33/1/25 
f 35/2/26 36/3/26 12/3/26 
f 12/3/26 11/2/26 35/2/26 
f 36/3/27 34/4/27 9/4/27 
f 9/4/27 12/3/27 36/3/27 
s 8
f 37/4/28 38/1/28 39/2/28 
f 39/2/28 40/3/29 37/4/28 
s off
f 41/4/1 42/1/1 43/1/1 
f 43/1/1 44/4/1 41/4/1 
f 42/1/30 45/2/30 46/2/30 
f 46/2/31 43/1/31 42/1/31 
f 45/2/32 47/3/32 48/3/32 
f 48/3/33 46/2/33 45/2/33 
f 47/3/34 41/4/34 44/4/34 
f 44/4/34 48/3/34 47/3/34 
s 1
f 45/2/35 42/1/35 41/4/35 
f 41/4/35 47/3/35 45/2/35 
s off
f 44/4/1 43/1/1 49/1/1 
f 49/1/1 50/4/1 44/4/1 
f 43/1/36 46/2/36 51/2/36 
f 51/2/36 49/1/36 43/1/36 
f 46/2/37 48/3/37 52/3/37 
f 52/3/38 51/2/38 46/2/38 
f 48/3/39 44/4/39 50/4/39 
f 50/4/40 52/3/40 48/3/40 
f 50/4/1 49/1/1 53/1/1 
f 53/1/1 54/4/1 50/4/1 
f 49/1/41 51/2/41 55/2/41 
f 55/2/41 53/1/41 49/1/41 
f 51/2/42 52/3/42 56/3/42 
f 56/3/43 55/2/43 51/2/43 
f 52/3/44 50/4/44 54/4/44 
f 54/4/45 56/3/45 52/3/45 
f 54/4/46 53/1/46 57/1/46 
f 57/1/47 58/4/47 54/4/47 
f 53/1/48 55/2/48 59/2/48 
f 59/2/48 57/1/48 53/1/48 
f 55/2/49 56/3/49 60/3/49 
f 60/3/50 59/2/50 55/2/50 
f 56/3/51 54/4/51 58/4/51 
f 58/4/51 60/3/51 56/3/51 
f 58/4/1 57/1/1 61/1/1 
f 61/1/1 62/4/1 58/4/1 
f 57/1/52 59/2/52 63/2/52 
f 63/2/52 61/1/52 57/1/52 
f 59/2/2 60/3/2 64/3/2 
f 64/3/53 63/2/53 59/2/53 
f 60/3/54 58/4/54 62/4/54 
f 62/4/54 64/3/54 60/3/54 
f 62/4/46 61/1/46 65/1/46 
f 65/1/46 66/4/46 62/4/46 
f 61/1/55 63/2/55 67/2/55 
f 67/2/55 65/1/55 61/1/55 
f 63/2/53 64/3/53 68/3/53 
f 68/3/53 67/2/53 63/2/53 
f 64/3/56 62/4/56 66/4/56 
f 66/4/56 68/3/56 64/3/56 
f 69/4/1 70/1/1 71/1/1 
f 71/1/1 72/4/1 69/4/1 
f 70/1/57 73/2/57 74/2/57 
f 74/2/57 71/1/57 70/1/57 
f 73/2/2 75/3/2 76/3/2 
f 76/3/2 74/2/2 73/2/2 
f 75/3/58 69/4/58 72/4/58 
f 72/4/58 76/3/58 75/3/58 
f 72/4/1 71/1/1 77/1/1 
f 77/1/1 78/4/1 72/4/1 
f 71/1/59 74/2/59 79/2/59 
f 79/2/59 77/1/59 71/1/59 
f 74/2/2 76/3/2 80/3/2 
f 80/3/2 79/2/2 74/2/2 
f 76/3/60 72/4/60 78/4/60 
f 78/4/60 80/3/60 76/3/60 
f 78/4/47 77/1/47 81/1/47 
f 81/1/47 82/4/47 78/4/47 
f 77/1/61 79/2/61 83/2/61 
f 83/2/61 81/1/61 77/1/61 
f 79/2/2 80/3/2 84/3/2 
f 84/3/2 83/2/2 79/2/2 
f 80/3/62 78/4/62 82/4/62 
f 82/4/62 84/3/62 80/3/62 
f 82/4/1 81/1/1 85/1/1 
f 85/1/1 86/4/1 82/4/1 
f 81/1/63 83/2/63 87/2/63 
f 87/2/63 85/1/63 81/1/63 
f 83/2/2 84/3/2 88/3/2 
f 88/3/2 87/2/2 83/2/2 
f 84/3/64 82/4/64 86/4/64 
f 86/4/64 88/3/64 84/3/64 
f 86/4/1 85/1/1 89/1/1 
f 89/1/1 90/4/1 86/4/1 
f 85/1/65 87/2/65 91/2/65 
f 91/2/65 89/1/65 85/1/65 
f 87/2/2 88/3/2 92/3/2 
f 92/3/2 91/2/2 87/2/2 
f 88/3/66 86/4/66 90/4/66 
f 90/4/66 92/3/66 88/3/66 
f 90/4/1 89/1/1 93/1/1 
f 93/1/1 94/4/1 90/4/1 
f 89/1/67 91/2/67 95/2/67 
f 95/2/67 93/1/67 89/1/67 
f 91/2/2 92/3/2 96/3/2 
f 96/3/2 95/2/2 91/2/2 
f 92/3/68 90/4/68 94/4/68 
f 94/4/68 96/3/68 92/3/68 
f 94/4/1 93/1/1 97/1/1 
f 97/1/1 98/4/1 94/4/1 
f 93/1/69 95/2/69 99/2/69 
f 99/2/69 97/1/69 93/1/69 
f 95/2/2 96/3/2 100/3/2 
f 100/3/2 99/2/2 95/2/2 
f 96/3/70 94/4/70 98/4/70 
f 98/4/71 100/3/71 96/3/71 
f 98/4/1 97/1/1 38/1/1 
f 38/1/1 37/4/1 98/4/1 
f 97/1/72 99/2/72 39/2/72 
f 39/2/73 38/1/73 97/1/73 
f 99/2/74 100/3/74 40/3/74 
f 40/3/75 39/2/75 99/2/75 
f 100/3/76 98/4/76 37/4/76 
f 37/4/76 40/3/76 100/3/76 
f 101/4/77 102/3/77 103/2/77 
f 103/2/77 104/1/77 101/4/77 
s 1
f 104/1/78 3/3/79 2/2/80 
f 2/2/80 101/4/78 104/1/78 
s 8
f 101/4/81 2/2/81 8/3/81 
f 8/3/81 102/3/81 101/4/81 
s 1
f 103/2/82 102/3/83 8/3/84 
f 8/3/84 7/2/84 103/2/82 
s off
f 103/2/85 7/2/85 3/1/85 
f 3/1/86 104/1/86 103/2/86 
s 1
f 69/4/1 105/4/1 106/1/1 
f 106/1/1 70/1/1 69/4/1 
f 105/4/1 107/2/1 108/3/1 
f 108/3/1 106/1/1 105/4/1 
f 108/3/1 107/2/1 109/4/1 
f 109/4/1 110/1/1 108/3/1 
f 110/1/1 109/4/1 111/2/1 
f 111/2/1 112/3/1 110/1/1 
f 112/3/1 111/2/1 66/4/1 
f 66/4/1 65/1/1 112/3/1 
s 2
f 113/1/87 114/1/87 115/4/87 
f 115/4/87 116/2/87 113/1/87 
f 114/1/87 117/3/87 118/1/87 
f 118/1/87 115/4/87 114/1/87 
f 117/3/87 119/1/88 120/2/88 
f 120/2/88 118/1/87 117/3/87 
f 119/1/88 121/3/88 122/3/88 
f 122/3/88 120/2/88 119/1/88 
f 121/3/88 123/1/87 124/2/87 
f 124/2/87 122/3/88 121/3/88 
s 1
f 75/3/2 73/2/2 125/4/2 
f 125/4/2 126/4/2 75/3/2 
f 126/4/2 125/4/2 127/1/2 
f 127/1/2 128/1/2 126/4/2 
f 127/1/2 129/2/2 130/4/2 
f 130/4/2 128/1/2 127/1/2 
f 129/2/2 131/3/53 132/1/53 
f 132/1/53 130/4/2 129/2/2 
f 131/3/53 67/2/53 68/3/53 
f 68/3/53 132/1/53 131/3/53 
s 2
f 68/3/89 66/4/89 111/2/90 
f 111/2/90 132/1/90 68/3/89 
f 132/1/90 111/2/90 109/4/90 
f 109/4/90 130/4/90 132/1/90 
f 130/4/90 109/4/90 107/2/89 
f 107/2/89 128/1/89 130/4/90 
f 128/1/89 107/2/89 105/4/89 
f 105/4/89 126/4/89 128/1/89 
f 126/4/89 105/4/89 69/4/89 
f 69/4/89 75/3/89 126/4/89 
s off
f 65/1/91 67/2/91 124/2/91 
f 124/2/91 123/1/91 65/1/91 
f 133/2/2 134/3/2 135/3/2 
f 135/3/2 136/2/2 133/2/2 
f 134/3/2 137/2/2 138/2/2 
f 138/2/2 135/3/2 134/3/2 
f 137/2/2 139/1/2 140/1/2 
f 140/1/2 138/2/2 137/2/2 
f 139/1/2 141/4/2 142/4/2 
f 142/4/2 140/1/2 139/1/2 
f 141/4/2 143/2/2 144/2/2 
f 144/2/2 142/4/2 141/4/2 
f 73/2/92 70/1/92 113/1/92 
f 113/1/92 116/2/92 73/2/92 
f 70/1/1 106/1/1 114/1/1 
f 114/1/1 113/1/1 70/1/1 
f 106/1/1 108/3/1 117/3/1 
f 117/3/1 114/1/1 106/1/1 
f 108/3/1 110/1/1 119/1/1 
f 119/1/1 117/3/1 108/3/1 
f 110/1/1 112/3/1 121/3/1 
f 121/3/1 119/1/1 110/1/1 
f 112/3/1 65/1/1 123/1/1 
f 123/1/1 121/3/1 112/3/1 
f 125/4/93 73/2/93 145/2/93 
f 145/2/90 146/4/90 125/4/90 
f 73/2/94 116/2/94 147/2/94 
f 147/2/92 145/2/92 73/2/92 
f 116/2/95 115/4/95 148/4/95 
f 148/4/95 147/2/95 116/2/95 
f 122/3/95 124/2/95 149/2/95 
f 149/2/95 150/3/95 122/3/95 
f 124/2/91 67/2/91 151/2/91 
f 151/2/91 149/2/91 124/2/91 
f 67/2/90 131/3/90 152/3/90 
f 152/3/90 151/2/90 67/2/90 
f 146/4/90 145/2/90 143/2/90 
f 143/2/90 141/4/90 146/4/90 
f 145/2/94 147/2/94 144/2/94 
f 144/2/94 143/2/94 145/2/94 
f 147/2/95 148/4/95 142/4/95 
f 142/4/95 144/2/95 147/2/95 
f 148/4/95 153/1/95 140/1/95 
f 140/1/95 142/4/95 148/4/95 
f 153/1/95 154/2/95 138/2/95 
f 138/2/95 140/1/95 153/1/95 
f 154/2/96 150/3/96 135/3/96 
f 135/3/96 138/2/96 154/2/96 
f 150/3/95 149/2/95 136/2/95 
f 136/2/95 135/3/95 150/3/95 
f 149/2/91 151/2/91 133/2/91 
f 133/2/91 136/2/91 149/2/91 
f 151/2/90 152/3/90 134/3/90 
f 134/3/90 133/2/90 151/2/90 
f 152/3/97 155/2/97 137/2/97 
f 137/2/97 134/3/97 152/3/97 
f 155/2/90 156/1/90 139/1/90 
f 139/1/90 137/2/90 155/2/90 
f 156/1/90 146/4/90 141/4/90 
f 141/4/90 139/1/90 156/1/90 
s 4
f 154/2/1 155/2/1 152/3/1 
f 152/3/1 150/3/1 154/2/1 
s 8
f 150/3/94 152/3/94 131/3/94 
f 131/3/94 122/3/94 150/3/94 
s 4
f 122/3/2 131/3/2 129/2/2 
f 129/2/2 120/2/2 122/3/2 
s 8
f 156/1/1 153/1/1 148/4/1 
f 148/4/1 146/4/1 156/1/1 
s 4
f 146/4/91 148/4/91 115/4/91 
f 115/4/91 125/4/91 146/4/91 
s 8
f 118/1/2 127/1/2 125/4/2 
f 125/4/2 115/4/2 118/1/2 
s 16
f 120/2/2 129/2/2 127/1/2 
f 127/1/2 118/1/2 120/2/2 
s 1
f 155/2/1 154/2/1 153/1/1 
f 153/1/1 156/1/1 155/2/1 
s 8
f 157/4/28 158/1/28 159/2/28 
f 159/2/28 160/3/29 157/4/28 
s off
f 161/4/1 162/1/1 158/1/1 
f 158/1/1 157/4/1 161/4/1 
f 162/1/98 163/2/98 159/2/98 
f 159/2/98 158/1/98 162/1/98 
f 163/2/2 164/3/2 160/3/2 
f 160/3/2 159/2/2 163/2/2 
f 164/3/99 161/4/99 157/4/99 
f 157/4/99 160/3/99 164/3/99 
f 161/4/77 164/3/77 163/2/77 
f 163/2/77 162/1/77 161/4/77 
s 8
f 165/4/28 166/1/28 167/2/28 
f 167/2/28 168/3/29 165/4/28 
s off
f 169/4/1 170/1/1 166/1/1 
f 166/1/1 165/4/1 169/4/1 
f 170/1/98 171/2/98 167/2/98 
f 167/2/98 166/1/98 170/1/98 
f 171/2/2 172/3/2 168/3/2 
f 168/3/2 167/2/2 171/2/2 
f 172/3/99 169/4/99 165/4/99 
f 165/4/99 168/3/99 172/3/99 
f 169/4/77 172/3/77 171/2/77 
f 171/2/77 170/1/77 169/4/77 
# 332 faces

